<svg width="39" height="40" viewBox="0 0 39 40" fill="none" xmlns="http://www.w3.org/2000/svg">
<rect opacity="0.25" x="0.75" y="1.25" width="37.5" height="37.5" rx="18.75" stroke="#191919" stroke-width="1.5"/>
<path fill-rule="evenodd" clip-rule="evenodd" d="M19.3122 17.4262L19.3404 17.902L18.8708 17.8437C17.1612 17.6204 15.6677 16.863 14.3996 15.591L13.7796 14.9599L13.62 15.426C13.2818 16.4649 13.4978 17.5621 14.2023 18.3001C14.5781 18.7079 14.4935 18.7661 13.8454 18.5234C13.62 18.4457 13.4227 18.3874 13.4039 18.4166C13.3382 18.4845 13.5636 19.3681 13.7421 19.7177C13.9863 20.2032 14.4841 20.679 15.0289 20.9605L15.4892 21.1839L14.9444 21.1936C14.4184 21.1936 14.3996 21.2033 14.4559 21.4072C14.6438 22.0383 15.3859 22.7083 16.2125 22.9996L16.7949 23.2035L16.2876 23.5142C15.5362 23.9609 14.6532 24.2133 13.7702 24.2328C13.3475 24.2425 13 24.2813 13 24.3104C13 24.4075 14.146 24.9513 14.8129 25.1649C16.8136 25.796 19.1901 25.5242 20.9748 24.4464C22.2429 23.6793 23.511 22.1549 24.1028 20.679C24.4222 19.8925 24.7415 18.4554 24.7415 17.766C24.7415 17.3194 24.7697 17.2611 25.2957 16.7271C25.6057 16.4164 25.8969 16.0765 25.9532 15.9794C26.0472 15.7949 26.0378 15.7949 25.5587 15.96C24.7603 16.2513 24.6476 16.2124 25.0421 15.7755C25.3333 15.4648 25.6808 14.9016 25.6808 14.7366C25.6808 14.7074 25.5399 14.756 25.3803 14.8434C25.2112 14.9405 24.8355 15.0861 24.5537 15.1735L24.0464 15.3386L23.5862 15.0181C23.3325 14.8434 22.9756 14.6492 22.7877 14.5909C22.3087 14.455 21.576 14.4744 21.1439 14.6297C19.9698 15.0667 19.2277 16.193 19.3122 17.4262Z" fill="#191919"/>
</svg>
